<svg width="1143" height="514" viewBox="0 0 1143 514" fill="none" xmlns="http://www.w3.org/2000/svg">
<path d="M1136.21 407.754V254.972C1136.21 239.552 1123.71 227.051 1108.29 227.051H1063.17L1142.13 139.604H1077.13L1001.75 227.051V0H951.491V142.172H808.774C777.615 142.172 769.909 133.461 769.909 104.647V83.2037C769.909 53.3844 777.28 45.6783 808.774 45.6783H903.692V2.79203H807.099C739.754 2.79203 719.987 23.5651 719.987 81.5285V105.987C719.987 163.615 739.754 184.388 807.099 184.388H951.491V407.754H1001.75V262.455H1068.65C1084.07 262.455 1096.57 274.955 1096.57 290.375V407.754H1136.21Z" fill="#CBEF43"/>
<path d="M214.878 415.014C201.811 415.014 192.765 407.307 187.739 396.921L136.477 285.015L69.8018 396.921C64.441 407.978 55.283 415.014 41.8811 415.014C26.8039 415.014 0 409.988 0 390.89V228.391H49.9222V345.994L110.008 242.128C116.039 230.067 122.74 223.366 137.482 223.366C151.554 223.366 158.925 229.397 164.621 242.128L213.873 350.684L268.821 228.391H318.408L242.352 396.921C237.661 407.307 228.28 415.014 214.878 415.014Z" fill="#CBEF43"/>
<path fill-rule="evenodd" clip-rule="evenodd" d="M565.763 277.979V337.617H379.141V345.994C379.141 368.107 385.842 372.127 409.295 372.127H468.264V409.988H409.295C351.667 409.988 329.219 389.215 329.219 340.968V299.087C329.219 246.149 347.646 228.391 411.641 228.391H499.423C551.356 228.391 565.763 249.164 565.763 277.979ZM379.141 305.453H515.841V281.999C515.841 269.938 510.48 266.922 495.403 266.922H412.311C387.182 266.922 379.141 269.602 379.141 295.736V305.453Z" fill="#CBEF43"/>
<path fill-rule="evenodd" clip-rule="evenodd" d="M903.692 337.617V277.979C903.692 249.164 889.285 228.391 837.352 228.391H682.559C618.565 228.391 600.137 246.149 600.137 299.087V340.968C600.137 389.215 622.585 409.988 680.214 409.988H739.182V372.127H680.214C656.76 372.127 650.059 368.107 650.059 345.994V337.617H903.692ZM853.77 305.453H650.059V295.736C650.059 269.602 658.1 266.922 683.229 266.922H833.332C848.409 266.922 853.77 269.938 853.77 281.999V305.453Z" fill="#CBEF43"/>
<path d="M402.347 184.388V140.162C402.347 82.1985 382.579 61.4255 314.565 61.4255H49.9222V2.79203H0V184.388H49.9222V104.312H313.224C344.049 104.312 352.425 111.348 352.425 141.837V184.388H402.347Z" fill="#CBEF43"/>
<path fill-rule="evenodd" clip-rule="evenodd" d="M601.081 184.388C665.41 184.388 683.838 166.631 683.838 114.028V69.8018C683.838 23.5651 661.055 2.79203 603.091 2.79203H526.762V38.3072H603.091C625.204 38.3072 633.916 44.3381 633.916 67.4564V71.477H499.561C449.304 71.477 436.572 88.8995 436.572 119.389V136.476C436.572 165.961 450.644 184.388 502.912 184.388H601.081ZM633.916 117.714C633.916 144.853 623.864 150.213 600.411 150.213H506.597C493.865 150.213 486.159 145.858 486.159 133.126V120.729C486.159 106.322 493.195 102.301 504.922 102.301H633.916V117.714Z" fill="#CBEF43"/>
<path d="M804.952 514C801.017 514 797.61 513.559 794.732 512.679C791.913 511.798 789.564 510.212 787.684 507.921C785.864 505.572 784.513 502.224 783.632 497.878C782.751 493.532 782.311 487.894 782.311 480.963C782.311 474.444 782.751 469.07 783.632 464.842C784.572 460.554 785.981 457.206 787.861 454.798C789.74 452.39 792.148 450.717 795.085 449.777C798.021 448.778 801.516 448.279 805.568 448.279C807.095 448.279 808.887 448.367 810.942 448.544C813.057 448.72 815.23 448.955 817.461 449.248C819.693 449.542 821.749 449.924 823.628 450.394V454.182C822.689 453.947 821.279 453.741 819.4 453.565C817.52 453.389 815.406 453.242 813.057 453.125C810.766 452.948 808.476 452.86 806.185 452.86C802.779 452.86 799.871 453.271 797.463 454.094C795.114 454.857 793.205 456.267 791.737 458.322C790.269 460.319 789.182 463.168 788.477 466.868C787.773 470.509 787.42 475.208 787.42 480.963C787.42 487.013 787.743 491.917 788.389 495.676C789.094 499.435 790.151 502.312 791.561 504.309C793.029 506.247 794.938 507.598 797.287 508.362C799.636 509.067 802.485 509.419 805.833 509.419C810.237 509.419 813.849 509.301 816.669 509.067C819.546 508.773 821.866 508.509 823.628 508.274V512.062C821.808 512.414 819.811 512.737 817.638 513.031C815.465 513.325 813.292 513.559 811.118 513.736C808.945 513.912 806.89 514 804.952 514Z" fill="#CBEF43"/>
<path d="M834.914 513.471V448.808H860.022C861.96 448.808 863.898 449.043 865.836 449.513C867.774 449.924 869.536 450.775 871.122 452.067C872.708 453.301 873.97 455.151 874.91 457.618C875.85 460.084 876.32 463.315 876.32 467.308C876.32 471.008 875.908 474.033 875.086 476.382C874.264 478.673 873.207 480.464 871.915 481.756C870.623 483.048 869.213 483.988 867.686 484.575C866.159 485.104 864.72 485.456 863.369 485.633L876.936 513.471H871.827L858.524 486.161C857.525 486.161 856.233 486.161 854.648 486.161C853.062 486.102 851.388 486.073 849.626 486.073C847.864 486.014 846.131 485.956 844.428 485.897C842.725 485.838 841.257 485.809 840.023 485.809V513.471H834.914ZM840.023 481.932H859.405C860.991 481.932 862.488 481.756 863.898 481.404C865.307 481.051 866.57 480.376 867.686 479.378C868.802 478.32 869.654 476.823 870.241 474.885C870.887 472.947 871.21 470.421 871.21 467.308C871.21 464.313 870.887 461.905 870.241 460.084C869.595 458.264 868.714 456.883 867.598 455.944C866.482 454.945 865.219 454.27 863.81 453.917C862.4 453.565 860.932 453.389 859.405 453.389H840.023V481.932Z" fill="#CBEF43"/>
<path d="M884.21 513.471L907.027 448.808H913.634L936.452 513.471H931.078L923.942 493.385H896.632L889.584 513.471H884.21ZM897.953 488.804H922.444L910.287 453.389L897.953 488.804Z" fill="#CBEF43"/>
<path d="M957.603 513.471V453.389H936.9V448.808H983.416V453.389H962.713V513.471H957.603Z" fill="#CBEF43"/>
<path d="M1004.19 513.824C1002.72 513.824 1001.22 513.706 999.697 513.471C998.228 513.178 996.819 512.649 995.468 511.886C994.176 511.063 993.119 509.859 992.297 508.274C991.474 506.629 991.063 504.456 991.063 501.754V461.23C991.063 458.822 991.416 456.825 992.12 455.239C992.825 453.653 993.765 452.39 994.939 451.451C996.114 450.511 997.406 449.836 998.816 449.424C1000.28 449.013 1001.75 448.808 1003.22 448.808C1006.57 448.867 1009.74 448.925 1012.74 448.984C1015.79 449.043 1018.73 449.131 1021.54 449.248C1024.42 449.307 1027.21 449.395 1029.91 449.513V453.477H1004.28C1001.81 453.477 999.844 454.152 998.375 455.503C996.907 456.795 996.173 458.91 996.173 461.846V479.025L1026.21 479.466V483.254L996.173 483.694V500.785C996.173 503.193 996.584 504.985 997.406 506.159C998.287 507.334 999.403 508.127 1000.75 508.538C1002.1 508.89 1003.48 509.067 1004.89 509.067H1029.91V513.031C1027.21 513.148 1024.39 513.266 1021.46 513.383C1018.58 513.442 1015.7 513.501 1012.82 513.559C1009.95 513.677 1007.07 513.765 1004.19 513.824Z" fill="#CBEF43"/>
<path d="M1064.98 514C1061.39 514 1058.13 513.677 1055.2 513.031C1052.32 512.326 1049.85 511.21 1047.8 509.683C1045.8 508.156 1044.27 506.101 1043.22 503.516C1042.16 500.873 1041.63 497.584 1041.63 493.649V448.808H1046.74V493.649C1046.74 497.761 1047.44 500.962 1048.85 503.252C1050.32 505.484 1052.41 507.07 1055.11 508.009C1057.87 508.89 1061.16 509.331 1064.98 509.331C1068.85 509.331 1072.14 508.89 1074.84 508.009C1077.54 507.07 1079.6 505.484 1081.01 503.252C1082.48 500.962 1083.21 497.761 1083.21 493.649V448.808H1088.32V493.649C1088.32 497.584 1087.79 500.873 1086.74 503.516C1085.74 506.101 1084.21 508.156 1082.15 509.683C1080.16 511.21 1077.69 512.326 1074.75 513.031C1071.88 513.677 1068.62 514 1064.98 514ZM1063.65 443.786L1073.34 431.893H1077.93L1066.65 443.786H1063.65Z" fill="#CBEF43"/>
<path d="M1119.85 514C1118.61 514 1117.12 513.971 1115.35 513.912C1113.65 513.853 1111.83 513.736 1109.89 513.559C1108.01 513.442 1106.22 513.325 1104.52 513.207C1102.87 513.031 1101.52 512.825 1100.47 512.59V508.714C1101.82 508.832 1103.52 508.949 1105.58 509.067C1107.69 509.184 1109.95 509.272 1112.36 509.331C1114.83 509.39 1117.26 509.419 1119.67 509.419C1122.43 509.419 1124.96 509.155 1127.25 508.626C1129.54 508.039 1131.36 506.982 1132.71 505.455C1134.06 503.869 1134.74 501.578 1134.74 498.583V493.649C1134.74 490.36 1133.91 487.835 1132.27 486.073C1130.62 484.311 1127.92 483.43 1124.16 483.43H1116.68C1111.62 483.43 1107.63 482.344 1104.69 480.171C1101.82 477.939 1100.38 474.033 1100.38 468.454V464.665C1100.38 458.616 1101.96 454.387 1105.14 451.979C1108.31 449.513 1112.74 448.279 1118.44 448.279C1120.2 448.279 1122.23 448.367 1124.52 448.544C1126.87 448.72 1129.16 448.925 1131.39 449.16C1133.62 449.395 1135.41 449.63 1136.76 449.865V453.741C1134.24 453.565 1131.36 453.389 1128.13 453.213C1124.9 452.978 1121.81 452.86 1118.88 452.86C1116.06 452.86 1113.62 453.213 1111.57 453.917C1109.57 454.564 1108.01 455.768 1106.9 457.529C1105.84 459.233 1105.31 461.67 1105.31 464.842V468.277C1105.31 472.212 1106.31 474.914 1108.31 476.382C1110.36 477.792 1113.18 478.497 1116.76 478.497H1124.6C1128.07 478.497 1130.92 479.143 1133.15 480.435C1135.38 481.668 1137.03 483.401 1138.08 485.633C1139.14 487.806 1139.67 490.302 1139.67 493.121V498.495C1139.67 502.665 1138.76 505.866 1136.94 508.097C1135.12 510.329 1132.71 511.886 1129.71 512.767C1126.72 513.589 1123.43 514 1119.85 514Z" fill="#CBEF43"/>
<path d="M623.714 513.608C620.173 513.608 616.95 513.289 614.048 512.65C611.203 511.953 608.765 510.85 606.733 509.341C604.759 507.831 603.249 505.799 602.204 503.245C601.159 500.632 600.637 497.381 600.637 493.491V449.166H605.688V493.491C605.688 497.555 606.384 500.719 607.778 502.984C609.229 505.19 611.29 506.757 613.961 507.686C616.689 508.557 619.94 508.992 623.714 508.992C627.546 508.992 630.797 508.557 633.467 507.686C636.138 506.757 638.17 505.19 639.563 502.984C641.015 500.719 641.74 497.555 641.74 493.491V449.166H646.791V493.491C646.791 497.381 646.269 500.632 645.224 503.245C644.237 505.799 642.727 507.831 640.695 509.341C638.722 510.85 636.283 511.953 633.38 512.65C630.536 513.289 627.314 513.608 623.714 513.608Z" fill="#CBEF43"/>
<path d="M660.102 513.085V461.444C660.102 459.064 660.451 457.09 661.147 455.523C661.844 453.955 662.773 452.707 663.934 451.778C665.095 450.849 666.372 450.182 667.766 449.775C669.217 449.369 670.669 449.166 672.12 449.166C674.79 449.224 677.606 449.282 680.567 449.34C683.528 449.34 686.518 449.398 689.537 449.514C692.614 449.572 695.604 449.688 698.506 449.862V453.781H673.078C670.698 453.781 668.782 454.478 667.33 455.871C665.879 457.206 665.153 459.267 665.153 462.054V480.342L694.849 480.777V484.522L665.153 484.957V513.085H660.102Z" fill="#CBEF43"/>
<path d="M729.985 513.608C726.096 513.608 722.728 513.172 719.884 512.302C717.097 511.431 714.775 509.863 712.917 507.599C711.117 505.277 709.782 501.968 708.911 497.671C708.04 493.375 707.605 487.802 707.605 480.951C707.605 474.507 708.04 469.195 708.911 465.015C709.84 460.777 711.233 457.468 713.091 455.087C714.949 452.707 717.329 451.052 720.232 450.123C723.135 449.137 726.589 448.643 730.595 448.643C732.104 448.643 733.875 448.73 735.907 448.904C737.997 449.078 740.145 449.311 742.351 449.601C744.557 449.891 746.589 450.269 748.447 450.733V454.478C747.518 454.245 746.125 454.042 744.267 453.868C742.409 453.694 740.319 453.549 737.997 453.433C735.733 453.259 733.469 453.171 731.204 453.171C727.837 453.171 724.963 453.578 722.583 454.391C720.261 455.145 718.374 456.539 716.923 458.571C715.471 460.545 714.397 463.36 713.701 467.018C713.004 470.617 712.656 475.262 712.656 480.951C712.656 486.931 712.975 491.779 713.613 495.494C714.31 499.21 715.355 502.055 716.749 504.029C718.2 505.944 720.087 507.28 722.409 508.034C724.731 508.731 727.547 509.079 730.856 509.079C735.21 509.079 738.781 508.963 741.568 508.731C744.412 508.441 746.705 508.18 748.447 507.947V511.692C746.647 512.04 744.674 512.36 742.525 512.65C740.377 512.94 738.229 513.172 736.081 513.347C733.933 513.521 731.901 513.608 729.985 513.608Z" fill="#CBEF43"/>
</svg>
